  0
SECTION
  2
HEADER
  9
$ACADVER
  1
AC1009
  9
$INSBASE
 10
0.0
 20
0.0
 30
0.0
  9
$EXTMIN
 10
0.0
 20
0.0
 30
0.0
  9
$EXTMAX
 10
318.6700000000000728
 20
87.6700000008024034
 30
0.0
  9
$LIMMIN
 10
0.0
 20
0.0
  9
$LIMMAX
 10
318.6700000000000728
 20
87.6700000008024034
  9
$ORTHOMODE
 70
     0
  9
$REGENMODE
 70
     1
  9
$FILLMODE
 70
     1
  9
$QTEXTMODE
 70
     0
  9
$MIRRTEXT
 70
     0
  9
$DRAGMODE
 70
     2
  9
$LTSCALE
 40
1.0
  9
$OSMODE
 70
     0
  9
$ATTMODE
 70
     1
  9
$TEXTSIZE
 40
0.2
  9
$TRACEWID
 40
0.05
  9
$TEXTSTYLE
  7
STANDARD
  9
$CLAYER
  8
0
  9
$CELTYPE
  6
BYLAYER
  9
$CECOLOR
 62
   256
  9
$DIMSCALE
 40
1.0
  9
$DIMASZ
 40
0.18
  9
$DIMEXO
 40
0.0625
  9
$DIMDLI
 40
0.38
  9
$DIMRND
 40
0.0
  9
$DIMDLE
 40
0.0
  9
$DIMEXE
 40
0.18
  9
$DIMTP
 40
0.0
  9
$DIMTM
 40
0.0
  9
$DIMTXT
 40
0.18
  9
$DIMCEN
 40
0.09
  9
$DIMTSZ
 40
0.0
  9
$DIMTOL
 70
     0
  9
$DIMLIM
 70
     0
  9
$DIMTIH
 70
     1
  9
$DIMTOH
 70
     1
  9
$DIMSE1
 70
     0
  9
$DIMSE2
 70
     0
  9
$DIMTAD
 70
     0
  9
$DIMZIN
 70
     0
  9
$DIMBLK
  1

  9
$DIMASO
 70
     1
  9
$DIMSHO
 70
     1
  9
$DIMPOST
  1

  9
$DIMAPOST
  1

  9
$DIMALT
 70
     0
  9
$DIMALTD
 70
     2
  9
$DIMALTF
 40
25.3999999999999986
  9
$DIMLFAC
 40
1.0
  9
$DIMTOFL
 70
     0
  9
$DIMTVP
 40
0.0
  9
$DIMTIX
 70
     0
  9
$DIMSOXD
 70
     0
  9
$DIMSAH
 70
     0
  9
$DIMBLK1
  1

  9
$DIMBLK2
  1

  9
$DIMSTYLE
  2
STANDARD
  9
$DIMCLRD
 70
     0
  9
$DIMCLRE
 70
     0
  9
$DIMCLRT
 70
     0
  9
$DIMTFAC
 40
1.0
  9
$DIMGAP
 40
0.09
  9
$LUNITS
 70
     2
  9
$LUPREC
 70
     4
  9
$SKETCHINC
 40
0.1
  9
$FILLETRAD
 40
0.0
  9
$AUNITS
 70
     0
  9
$AUPREC
 70
     0
  9
$MENU
  1
.
  9
$ELEVATION
 40
0.0
  9
$PELEVATION
 40
0.0
  9
$THICKNESS
 40
0.0
  9
$LIMCHECK
 70
     0
  9
$BLIPMODE
 70
     0
  9
$CHAMFERA
 40
0.0
  9
$CHAMFERB
 40
0.0
  9
$SKPOLY
 70
     0
  9
$TDCREATE
 40
2459349.6918402779847383
  9
$TDUPDATE
 40
2459349.6918402779847383
  9
$TDINDWG
 40
0.0000115741
  9
$TDUSRTIMER
 40
0.0000115741
  9
$USRTIMER
 70
     1
  9
$ANGBASE
 50
0.0
  9
$ANGDIR
 70
     0
  9
$PDMODE
 70
     0
  9
$PDSIZE
 40
0.0
  9
$PLINEWID
 40
0.0
  9
$COORDS
 70
     0
  9
$SPLFRAME
 70
     0
  9
$SPLINETYPE
 70
     6
  9
$SPLINESEGS
 70
     8
  9
$ATTDIA
 70
     1
  9
$ATTREQ
 70
     1
  9
$HANDLING
 70
     1
  9
$HANDSEED
  5
22D
  9
$SURFTAB1
 70
     6
  9
$SURFTAB2
 70
     6
  9
$SURFTYPE
 70
     6
  9
$SURFU
 70
     6
  9
$SURFV
 70
     6
  9
$UCSNAME
  2

  9
$UCSORG
 10
0.0
 20
0.0
 30
0.0
  9
$UCSXDIR
 10
1.0
 20
0.0
 30
0.0
  9
$UCSYDIR
 10
0.0
 20
1.0
 30
0.0
  9
$PUCSNAME
  2

  9
$PUCSORG
 10
0.0
 20
0.0
 30
0.0
  9
$PUCSXDIR
 10
1.0
 20
0.0
 30
0.0
  9
$PUCSYDIR
 10
0.0
 20
1.0
 30
0.0
  9
$USERI1
 70
     0
  9
$USERI2
 70
     0
  9
$USERI3
 70
     0
  9
$USERI4
 70
     0
  9
$USERI5
 70
     0
  9
$USERR1
 40
0.0
  9
$USERR2
 40
0.0
  9
$USERR3
 40
0.0
  9
$USERR4
 40
0.0
  9
$USERR5
 40
0.0
  9
$WORLDVIEW
 70
     1
  9
$SHADEDGE
 70
     3
  9
$SHADEDIF
 70
    70
  9
$TILEMODE
 70
     1
  9
$MAXACTVP
 70
    64
  9
$PLIMCHECK
 70
     0
  9
$PEXTMIN
 10
0.0
 20
0.0
 30
0.0
  9
$PEXTMAX
 10
318.6700000000000728
 20
87.6700000008024034
 30
0.0
  9
$PLIMMIN
 10
0.0
 20
0.0
  9
$PLIMMAX
 10
318.6700000000000728
 20
87.6700000008024034
  9
$UNITMODE
 70
     0
  9
$VISRETAIN
 70
     1
  9
$PLINEGEN
 70
     0
  9
$PSLTSCALE
 70
     1
  0
ENDSEC
  0
SECTION
  2
TABLES
  0
TABLE
  2
VPORT
 70
     1
  0
VPORT
  2
*ACTIVE
 70
     0
 10
0.0
 20
0.0
 11
1.0
 21
1.0
 12
34.3454287046631208
 22
85.8022911054859065
 13
0.0
 23
0.0
 14
1.0
 24
1.0
 15
0.0
 25
0.0
 16
0.0
 26
0.0
 36
1.0
 17
0.0
 27
0.0
 37
0.0
 40
87.6700000008024034
 41
3.634880802978024
 42
50.0
 43
0.0
 44
0.0
 50
0.0
 51
0.0
 71
     0
 72
   100
 73
     1
 74
     1
 75
     0
 76
     0
 77
     0
 78
     0
  0
ENDTAB
  0
TABLE
  2
LTYPE
 70
    59
  0
LTYPE
  2
CONTINUOUS
 70
     0
  3
Solid line
 72
    65
 73
     0
 40
0.0
  0
LTYPE
  2
BY_STANDARD
 70
     0
  3
By Standard ____________    ____    ____   _
 72
    65
 73
     6
 40
1.2402999999999991
 49
0.6614
 49
-0.0827
 49
0.1654
 49
-0.0827
 49
0.1654
 49
-0.0827
  0
LTYPE
  2
CHAIN
 70
     0
  3
Chain ____ _ ____ _ ____ _ ____ _ ____ _ ____
 72
    65
 73
     4
 40
0.7087
 49
0.4724000000000001
 49
-0.0591
 49
0.1181
 49
-0.0591
  0
LTYPE
  2
DASH_DOT
 70
     0
  3
Dash dot __ . __ . __ . __ . __ . __ . __ . __
 72
    65
 73
     4
 40
0.37
 49
0.24
 49
-0.06
 49
0.01
 49
-0.06
  0
LTYPE
  2
DOUBLE_DASH_DOT
 70
     0
  3
Double-Dash Dot __ __ . __ __ . __ __ . __ _
 72
    65
 73
     6
 40
0.4398
 49
0.24
 49
-0.06
 49
0.0098
 49
-0.06
 49
0.01
 49
-0.06
  0
LTYPE
  2
DASH_TRIPLE_DOT
 70
     0
  3
Dash Triple-Dot _ . . . _ . . . _ . . . _
 72
    65
 73
     8
 40
0.51
 49
0.24
 49
-0.06
 49
0.01
 49
-0.06
 49
0.01
 49
-0.06
 49
0.01
 49
-0.06
  0
LTYPE
  2
DASHED
 70
     0
  3
Dashed __ __ __ __ __ __ __ __ __ __ __ __ __ _
 72
    65
 73
     2
 40
0.2067
 49
0.1654
 49
-0.0413
  0
LTYPE
  2
DASH_DOUBLE_DOT
 70
     0
  3
Dash Double-Dot __ . . __ . . __ . . __ . .
 72
    65
 73
     6
 40
0.4398
 49
0.24
 49
-0.06
 49
0.0098
 49
-0.06
 49
0.01
 49
-0.06
  0
LTYPE
  2
DASHED_SPACE
 70
     0
  3
Dashed Space __ __ __ __ __ __ __ __ __ __ __ _
 72
    65
 73
     2
 40
0.2067
 49
0.1654
 49
-0.0413
  0
LTYPE
  2
DOTTED
 70
     0
  3
Dotted . . . . . . . . . . . . . . . . . . . . 
 72
    65
 73
     2
 40
0.0482
 49
0.0069
 49
-0.0413
  0
LTYPE
  2
DOUBLE_DASH_CHAIN
 70
     0
  3
Double-Dash Chain ______  __  __  ______  __  _
 72
    65
 73
     6
 40
1.2402999999999991
 49
0.6614
 49
-0.0827
 49
0.1654
 49
-0.0827
 49
0.1654
 49
-0.0827
  0
LTYPE
  2
DOUBLE_DASH_DOUBLE_DOT
 70
     0
  3
Double-Dash Double-dot _ _ . . _ _ . . _
 72
    65
 73
     8
 40
0.7400000000000001
 49
0.24
 49
-0.06
 49
0.24
 49
-0.06
 49
0.01
 49
-0.06
 49
0.01
 49
-0.06
  0
LTYPE
  2
DOUBLE_DASH_TRIPLE_DOT
 70
     0
  3
Double Dash Triple Dot __ __ . . . __ __ . .
 72
    65
 73
    10
 40
0.8100000000000001
 49
0.24
 49
-0.06
 49
0.24
 49
-0.06
 49
0.01
 49
-0.06
 49
0.01
 49
-0.06
 49
0.01
 49
-0.06
  0
LTYPE
  2
LONG_DASH_DOTTED
 70
     0
  3
Long Dash Dotted ____ . ____ . ____ . ____ . _
 72
    65
 73
     4
 40
0.3543
 49
0.2362
 49
-0.0295
 49
0.0591
 49
-0.0295
  0
LTYPE
  2
LONG_DASH_DOUBLE_DOT
 70
     0
  3
Long Dash Double Dot ________  .  .  ________  
 72
    65
 73
     6
 40
0.6799999999999999
 49
0.48
 49
-0.06
 49
0.01
 49
-0.06
 49
0.01
 49
-0.06
  0
LTYPE
  2
LONG_DASH_TRIPLE_DOT
 70
     0
  3
Long Dash Triple Dot ____ ... ____ ... ____
 72
    65
 73
     8
 40
0.3689
 49
0.2362
 49
-0.0295
 49
0.0049
 49
-0.0295
 49
0.0049
 49
-0.0295
 49
0.0049
 49
-0.0295
  0
LTYPE
  2
BORDER
 70
     0
  3
Border __ __ . __ __ . __ __ . __ __ . __ __ .
 72
    65
 73
     6
 40
1.75
 49
0.5
 49
-0.25
 49
0.5
 49
-0.25
 49
0.0
 49
-0.25
  0
LTYPE
  2
BORDER2
 70
     0
  3
Border (.5x) __.__.__.__.__.__.__.__.__.__.__.
 72
    65
 73
     6
 40
0.875
 49
0.25
 49
-0.125
 49
0.25
 49
-0.125
 49
0.0
 49
-0.125
  0
LTYPE
  2
BORDERX2
 70
     0
  3
Border (2x) ____  ____  .  ____  ____  .  ___
 72
    65
 73
     6
 40
3.5
 49
1.0
 49
-0.5
 49
1.0
 49
-0.5
 49
0.0
 49
-0.5
  0
LTYPE
  2
CENTER
 70
     0
  3
Center ____ _ ____ _ ____ _ ____ _ ____ _ ____
 72
    65
 73
     4
 40
2.0
 49
1.25
 49
-0.25
 49
0.25
 49
-0.25
  0
LTYPE
  2
CENTER2
 70
     0
  3
Center (.5x) ___ _ ___ _ ___ _ ___ _ ___ _ ___
 72
    65
 73
     4
 40
1.125
 49
0.75
 49
-0.125
 49
0.125
 49
-0.125
  0
LTYPE
  2
CENTERX2
 70
     0
  3
Center (2x) ________  __  ________  __  _____
 72
    65
 73
     4
 40
4.0
 49
2.5
 49
-0.5
 49
0.5
 49
-0.5
  0
LTYPE
  2
DASHDOT2
 70
     0
  3
Dash dot (.5x) _._._._._._._._._._._._._._._.
 72
    65
 73
     4
 40
0.5
 49
0.25
 49
-0.125
 49
0.0
 49
-0.125
  0
LTYPE
  2
DASHDOTX2
 70
     0
  3
Dash dot (2x) ____  .  ____  .  ____  .  ___
 72
    65
 73
     4
 40
2.0
 49
1.0
 49
-0.5
 49
0.0
 49
-0.5
  0
LTYPE
  2
DASHED2
 70
     0
  3
Dashed (.5x) _ _ _ _ _ _ _ _ _ _ _ _ _ _ _ _ _
 72
    65
 73
     2
 40
0.375
 49
0.25
 49
-0.125
  0
LTYPE
  2
DASHEDX2
 70
     0
  3
Dashed (2x) ____  ____  ____  ____  ____  ___
 72
    65
 73
     2
 40
1.5
 49
1.0
 49
-0.5
  0
LTYPE
  2
DIVIDE
 70
     0
  3
Divide ____ . . ____ . . ____ . . ____ . . ____
 72
    65
 73
     6
 40
1.25
 49
0.5
 49
-0.25
 49
0.0
 49
-0.25
 49
0.0
 49
-0.25
  0
LTYPE
  2
DIVIDE2
 70
     0
  3
Divide (.5x) __..__..__..__..__..__..__..__.._
 72
    65
 73
     6
 40
0.625
 49
0.25
 49
-0.125
 49
0.0
 49
-0.125
 49
0.0
 49
-0.125
  0
LTYPE
  2
DIVIDEX2
 70
     0
  3
Divide (2x) ________  .  .  ________  .  .  _
 72
    65
 73
     6
 40
2.5
 49
1.0
 49
-0.5
 49
0.0
 49
-0.5
 49
0.0
 49
-0.5
  0
LTYPE
  2
DOT
 70
     0
  3
Dot . . . . . . . . . . . . . . . . . . . . . .
 72
    65
 73
     2
 40
0.25
 49
0.0
 49
-0.25
  0
LTYPE
  2
DOT2
 70
     0
  3
Dot (.5x) .....................................
 72
    65
 73
     2
 40
0.125
 49
0.0
 49
-0.125
  0
LTYPE
  2
DOTX2
 70
     0
  3
Dot (2x) .  .  .  .  .  .  .  .  .  .  .  .  . 
 72
    65
 73
     2
 40
0.5
 49
0.0
 49
-0.5
  0
LTYPE
  2
HIDDEN
 70
     0
  3
Hidden __ __ __ __ __ __ __ __ __ __ __ __ __ _
 72
    65
 73
     2
 40
0.375
 49
0.25
 49
-0.125
  0
LTYPE
  2
HIDDEN2
 70
     0
  3
Hidden (.5x) _ _ _ _ _ _ _ _ _ _ _ _ _ _ _ _ _
 72
    65
 73
     2
 40
0.1875
 49
0.125
 49
-0.0625
  0
LTYPE
  2
HIDDENX2
 70
     0
  3
Hidden (2x) ____ ____ ____ ____ ____ ____ ____
 72
    65
 73
     2
 40
0.75
 49
0.5
 49
-0.25
  0
LTYPE
  2
PHANTOM
 70
     0
  3
Phantom ______  __  __  ______  __  __  ______
 72
    65
 73
     6
 40
2.5
 49
1.25
 49
-0.25
 49
0.25
 49
-0.25
 49
0.25
 49
-0.25
  0
LTYPE
  2
PHANTOM2
 70
     0
  3
Phantom (.5x) ___ _ _ ___ _ _ ___ _ _ ___ _ _
 72
    65
 73
     6
 40
1.25
 49
0.625
 49
-0.125
 49
0.125
 49
-0.125
 49
0.125
 49
-0.125
  0
LTYPE
  2
PHANTOMX2
 70
     0
  3
Phantom (2x) ____________    ____    ____   _
 72
    65
 73
     6
 40
5.0
 49
2.5
 49
-0.5
 49
0.5
 49
-0.5
 49
0.5
 49
-0.5
  0
LTYPE
  2
ACAD_ISO02W100
 70
     0
  3
ISO dash __ __ __ __ __ __ __ __ __ __ __ __ __
 72
    65
 73
     2
 40
0.59
 49
0.47
 49
-0.12
  0
LTYPE
  2
ACAD_ISO03W100
 70
     0
  3
ISO dash space __    __    __    __    __    __
 72
    65
 73
     2
 40
1.179999999999999
 49
0.47
 49
-0.71
  0
LTYPE
  2
ACAD_ISO04W100
 70
     0
  3
ISO long-dash dot ____ . ____ . ____ . ____ . _
 72
    65
 73
     4
 40
1.179999999999999
 49
0.9399999999999998
 49
-0.12
 49
0.0
 49
-0.12
  0
LTYPE
  2
ACAD_ISO05W100
 70
     0
  3
ISO long-dash double-dot ____ .. ____ .. ____ .
 72
    65
 73
     6
 40
1.2999999999999989
 49
0.9399999999999998
 49
-0.12
 49
0.0
 49
-0.12
 49
0.0
 49
-0.12
  0
LTYPE
  2
ACAD_ISO06W100
 70
     0
  3
ISO long-dash triple-dot ____ ... ____ ... ____
 72
    65
 73
     8
 40
1.419999999999999
 49
0.9399999999999998
 49
-0.12
 49
0.0
 49
-0.12
 49
0.0
 49
-0.12
 49
0.0
 49
-0.12
  0
LTYPE
  2
ACAD_ISO07W100
 70
     0
  3
ISO dot . . . . . . . . . . . . . . . . . . . .
 72
    65
 73
     2
 40
0.12
 49
0.0
 49
-0.12
  0
LTYPE
  2
ACAD_ISO08W100
 70
     0
  3
ISO long-dash short-dash ____ __ ____ __ ____ _
 72
    65
 73
     4
 40
0.95
 49
0.47
 49
-0.12
 49
0.24
 49
-0.12
  0
LTYPE
  2
ACAD_ISO09W100
 70
     0
  3
ISO long-dash double-short-dash ____ __ __ ____
 72
    65
 73
     6
 40
1.3100000000000001
 49
0.47
 49
-0.12
 49
0.24
 49
-0.12
 49
0.24
 49
-0.12
  0
LTYPE
  2
ACAD_ISO10W100
 70
     0
  3
ISO dash dot __ . __ . __ . __ . __ . __ . __ .
 72
    65
 73
     4
 40
0.71
 49
0.47
 49
-0.12
 49
0.0
 49
-0.12
  0
LTYPE
  2
ACAD_ISO11W100
 70
     0
  3
ISO double-dash dot __ __ . __ __ . __ __ . __ 
 72
    65
 73
     6
 40
1.2999999999999989
 49
0.47
 49
-0.12
 49
0.47
 49
-0.12
 49
0.0
 49
-0.12
  0
LTYPE
  2
ACAD_ISO12W100
 70
     0
  3
ISO dash double-dot __ . . __ . . __ . . __ . .
 72
    65
 73
     6
 40
0.8299999999999998
 49
0.47
 49
-0.12
 49
0.0
 49
-0.12
 49
0.0
 49
-0.12
  0
LTYPE
  2
ACAD_ISO13W100
 70
     0
  3
ISO double-dash double-dot __ __ . . __ __ . . 
 72
    65
 73
     8
 40
1.419999999999999
 49
0.47
 49
-0.12
 49
0.47
 49
-0.12
 49
0.0
 49
-0.12
 49
0.0
 49
-0.12
  0
LTYPE
  2
ACAD_ISO14W100
 70
     0
  3
ISO dash triple-dot __ . . . __ . . . __ . . . 
 72
    65
 73
     8
 40
0.95
 49
0.47
 49
-0.12
 49
0.0
 49
-0.12
 49
0.0
 49
-0.12
 49
0.0
 49
-0.12
  0
LTYPE
  2
ACAD_ISO15W100
 70
     0
  3
ISO double-dash triple-dot __ __ . . . __ __ . 
 72
    65
 73
    10
 40
1.5399999999999989
 49
0.47
 49
-0.12
 49
0.47
 49
-0.12
 49
0.0
 49
-0.12
 49
0.0
 49
-0.12
 49
0.0
 49
-0.12
  0
LTYPE
  2
FENCELINE1
 70
     0
  3
Fenceline circle ----0-----0----0-----0----0---
 72
    65
 73
     4
 40
1.45
 49
0.25
 49
-0.1
 49
-0.1
 49
1.0
  0
LTYPE
  2
FENCELINE2
 70
     0
  3
Fenceline square ----[]-----[]----[]-----[]----
 72
    65
 73
     4
 40
1.45
 49
0.25
 49
-0.1
 49
-0.1
 49
1.0
  0
LTYPE
  2
TRACKS
 70
     0
  3
Tracks -|-|-|-|-|-|-|-|-|-|-|-|-|-|-|-|-|-|-|-|
 72
    65
 73
     2
 40
0.3
 49
0.15
 49
0.15
  0
LTYPE
  2
BATTING
 70
     0
  3
Batting SSSSSSSSSSSSSSSSSSSSSSSSSSSSSSSSSSSSSSS
 72
    65
 73
     4
 40
0.4001000000000001
 49
0.0001
 49
-0.1
 49
-0.2
 49
-0.1
  0
LTYPE
  2
HOT_WATER_SUPPLY
 70
     0
  3
Hot water supply ---- HW ---- HW ---- HW ----
 72
    65
 73
     3
 40
0.9
 49
0.5
 49
-0.2
 49
-0.2
  0
LTYPE
  2
GAS_LINE
 70
     0
  3
Gas line ----GAS----GAS----GAS----GAS----GAS---
 72
    65
 73
     3
 40
0.95
 49
0.5
 49
-0.2
 49
-0.25
  0
LTYPE
  2
ZIGZAG
 70
     0
  3
Zig zag /\/\/\/\/\/\/\/\/\/\/\/\/\/\/\/\/\/\/\/
 72
    65
 73
     4
 40
0.8001000000000001
 49
0.0001
 49
-0.2
 49
-0.4
 49
-0.2
  0
ENDTAB
  0
TABLE
  2
LAYER
 70
     1
  0
LAYER
  2
0
 70
     0
 62
     7
  6
CONTINUOUS
  0
ENDTAB
  0
TABLE
  2
STYLE
 70
     5
  0
STYLE
  2
STANDARD
 70
     0
 40
0.0
 41
1.0
 50
0.0
 71
     0
 42
0.2
  3
txt
  4

  0
STYLE
  2
ANNOTATIVE
 70
     0
 40
0.0
 41
1.0
 50
0.0
 71
     0
 42
0.2
  3
txt
  4

  0
STYLE
  2

 70
     1
 40
0.0
 41
1.0
 50
0.0
 71
     0
 42
0.2
  3
ltypeshp.shx
  4

  0
STYLE
  2
NOTE_TEXT__ANSI__-_3DA
 70
     0
 40
0.0
 41
1.0
 50
0.0
 71
     0
 42
0.2
  3
txt.shx
  4
bigfont.shx
  0
STYLE
  2
SKETCH_TEXT__ANSI__-_3DA
 70
     0
 40
0.0
 41
1.0
 50
0.0
 71
     0
 42
0.2
  3
txt.shx
  4
bigfont.shx
  0
ENDTAB
  0
TABLE
  2
VIEW
 70
     0
  0
ENDTAB
  0
TABLE
  2
UCS
 70
     0
  0
ENDTAB
  0
TABLE
  2
APPID
 70
     3
  0
APPID
  2
ACAD
 70
     0
  0
APPID
  2
ACADANNOTATIVE
 70
     0
  0
APPID
  2
ACAD_MLEADERVER
 70
     0
  0
ENDTAB
  0
TABLE
  2
DIMSTYLE
 70
     2
  0
DIMSTYLE
  2
STANDARD
 70
     0
  3

  4

  5

  6

  7

 40
1.0
 41
0.18
 42
0.0625
 43
0.38
 44
0.18
 45
0.0
 46
0.0
 47
0.0
 48
0.0
140
0.18
141
0.09
142
0.0
143
25.3999999999999986
144
1.0
145
0.0
146
1.0
147
0.09
 71
     0
 72
     0
 73
     1
 74
     1
 75
     0
 76
     0
 77
     0
 78
     0
170
     0
171
     2
172
     0
173
     0
174
     0
175
     0
176
     0
177
     0
178
     0
  0
DIMSTYLE
  2
ANNOTATIVE
 70
     0
  3

  4

  5

  6

  7

 40
1.0
 41
0.18
 42
0.0625
 43
0.38
 44
0.18
 45
0.0
 46
0.0
 47
0.0
 48
0.0
140
0.18
141
0.09
142
0.0
143
25.3999999999999986
144
1.0
145
0.0
146
1.0
147
0.09
 71
     0
 72
     0
 73
     1
 74
     1
 75
     0
 76
     0
 77
     0
 78
     0
170
     0
171
     2
172
     0
173
     0
174
     0
175
     0
176
     0
177
     0
178
     0
  0
ENDTAB
  0
ENDSEC
  0
SECTION
  2
BLOCKS
  0
BLOCK
  8
0
  2
$MODEL_SPACE
 70
     0
 10
0.0
 20
0.0
 30
0.0
  3
$MODEL_SPACE
  1

  0
ENDBLK
  5
72
  8
0
  0
BLOCK
 67
     1
  8
0
  2
$PAPER_SPACE
 70
     0
 10
0.0
 20
0.0
 30
0.0
  3
$PAPER_SPACE
  1

  0
ENDBLK
  5
6E
 67
     1
  8
0
  0
ENDSEC
  0
SECTION
  2
ENTITIES
  0
POLYLINE
  5
B8
  8
0
 66
     1
 10
0.0
 20
0.0
 30
0.0
  0
VERTEX
  5
B9
  8
0
 10
-5.7266144020958079
 20
122.6203890206186031
 30
0.0
  0
VERTEX
  5
BA
  8
0
 10
-5.7266144020958194
 20
125.652291105850594
 30
0.0
  0
VERTEX
  5
BC
  8
0
 10
-110.5045712953368025
 20
125.652291105121293
 30
0.0
  0
VERTEX
  5
BD
  8
0
 10
-110.5045712953369019
 20
45.9522911051212901
 30
0.0
  0
VERTEX
  5
BE
  8
0
 10
179.1954287046629872
 20
45.952291105121212
 30
0.0
  0
VERTEX
  5
BF
  8
0
 10
179.1954287046631009
 20
125.652291105121293
 30
0.0
  0
VERTEX
  5
C0
  8
0
 10
70.6829629310899321
 20
125.652291105850594
 30
0.0
  0
VERTEX
  5
C1
  8
0
 10
70.6829629310899747
 20
122.6203890206191005
 30
0.0
  0
SEQEND
  5
BB
  8
0
  0
POLYLINE
  5
C3
  8
0
 66
     1
 10
0.0
 20
0.0
 30
0.0
  0
VERTEX
  5
C4
  8
0
 10
70.6829630206617736
 20
98.6841932373631749
 30
0.0
  0
VERTEX
  5
C5
  8
0
 10
66.699841480363375
 20
97.7682812649379969
 30
0.0
  0
VERTEX
  5
C7
  8
0
 10
-4.4935137795127744
 20
97.7682812649374
 30
0.0
  0
VERTEX
  5
C8
  8
0
 10
-6.1242928922889774
 20
98.9661307075233765
 30
0.0
  0
SEQEND
  5
C6
  8
0
  0
POLYLINE
  5
C9
  8
0
 10
70.682963020661731
 20
98.6841932373632034
 30
0.0
 66
     1
 70
     8
  0
VERTEX
  8
0
  5
129
 10
70.6830
 20
98.6842
 30
0.00000
  70
    32
  0
VERTEX
  8
0
  5
12A
 10
70.9257
 20
98.7538
 30
0.00000
  70
    32
  0
VERTEX
  8
0
  5
12B
 10
71.1669
 20
98.8283
 30
0.00000
  70
    32
  0
VERTEX
  8
0
  5
12C
 10
71.4066
 20
98.9077
 30
0.00000
  70
    32
  0
VERTEX
  8
0
  5
12D
 10
71.6447
 20
98.9920
 30
0.00000
  70
    32
  0
VERTEX
  8
0
  5
12E
 10
71.8809
 20
99.0811
 30
0.00000
  70
    32
  0
VERTEX
  8
0
  5
12F
 10
72.1154
 20
99.1749
 30
0.00000
  70
    32
  0
VERTEX
  8
0
  5
130
 10
72.3478
 20
99.2736
 30
0.00000
  70
    32
  0
VERTEX
  8
0
  5
131
 10
72.5782
 20
99.3769
 30
0.00000
  70
    32
  0
VERTEX
  8
0
  5
132
 10
72.8064
 20
99.4849
 30
0.00000
  70
    32
  0
VERTEX
  8
0
  5
133
 10
73.0324
 20
99.5975
 30
0.00000
  70
    32
  0
VERTEX
  8
0
  5
134
 10
73.2561
 20
99.7147
 30
0.00000
  70
    32
  0
VERTEX
  8
0
  5
135
 10
73.4773
 20
99.8364
 30
0.00000
  70
    32
  0
VERTEX
  8
0
  5
136
 10
73.6961
 20
99.9626
 30
0.00000
  70
    32
  0
VERTEX
  8
0
  5
137
 10
73.9122
 20
100.093
 30
0.00000
  70
    32
  0
VERTEX
  8
0
  5
138
 10
74.1256
 20
100.228
 30
0.00000
  70
    32
  0
VERTEX
  8
0
  5
139
 10
74.3362
 20
100.367
 30
0.00000
  70
    32
  0
VERTEX
  8
0
  5
13A
 10
74.5439
 20
100.511
 30
0.00000
  70
    32
  0
VERTEX
  8
0
  5
13B
 10
74.7487
 20
100.659
 30
0.00000
  70
    32
  0
VERTEX
  8
0
  5
13C
 10
74.9504
 20
100.811
 30
0.00000
  70
    32
  0
VERTEX
  8
0
  5
13D
 10
75.1490
 20
100.967
 30
0.00000
  70
    32
  0
VERTEX
  8
0
  5
13E
 10
75.3444
 20
101.127
 30
0.00000
  70
    32
  0
VERTEX
  8
0
  5
13F
 10
75.5365
 20
101.290
 30
0.00000
  70
    32
  0
VERTEX
  8
0
  5
140
 10
75.7252
 20
101.458
 30
0.00000
  70
    32
  0
VERTEX
  8
0
  5
141
 10
75.9105
 20
101.630
 30
0.00000
  70
    32
  0
VERTEX
  8
0
  5
142
 10
76.0922
 20
101.805
 30
0.00000
  70
    32
  0
VERTEX
  8
0
  5
143
 10
76.2703
 20
101.984
 30
0.00000
  70
    32
  0
VERTEX
  8
0
  5
144
 10
76.4448
 20
102.167
 30
0.00000
  70
    32
  0
VERTEX
  8
0
  5
145
 10
76.6155
 20
102.353
 30
0.00000
  70
    32
  0
VERTEX
  8
0
  5
146
 10
76.7824
 20
102.542
 30
0.00000
  70
    32
  0
VERTEX
  8
0
  5
147
 10
76.9454
 20
102.735
 30
0.00000
  70
    32
  0
VERTEX
  8
0
  5
148
 10
77.1044
 20
102.931
 30
0.00000
  70
    32
  0
VERTEX
  8
0
  5
149
 10
77.2595
 20
103.130
 30
0.00000
  70
    32
  0
VERTEX
  8
0
  5
14A
 10
77.4104
 20
103.333
 30
0.00000
  70
    32
  0
VERTEX
  8
0
  5
14B
 10
77.5572
 20
103.538
 30
0.00000
  70
    32
  0
VERTEX
  8
0
  5
14C
 10
77.6998
 20
103.747
 30
0.00000
  70
    32
  0
VERTEX
  8
0
  5
14D
 10
77.8381
 20
103.958
 30
0.00000
  70
    32
  0
VERTEX
  8
0
  5
14E
 10
77.9721
 20
104.172
 30
0.00000
  70
    32
  0
VERTEX
  8
0
  5
14F
 10
78.1017
 20
104.389
 30
0.00000
  70
    32
  0
VERTEX
  8
0
  5
150
 10
78.2268
 20
104.608
 30
0.00000
  70
    32
  0
VERTEX
  8
0
  5
151
 10
78.3475
 20
104.830
 30
0.00000
  70
    32
  0
VERTEX
  8
0
  5
152
 10
78.4637
 20
105.054
 30
0.00000
  70
    32
  0
VERTEX
  8
0
  5
153
 10
78.5752
 20
105.281
 30
0.00000
  70
    32
  0
VERTEX
  8
0
  5
154
 10
78.6822
 20
105.509
 30
0.00000
  70
    32
  0
VERTEX
  8
0
  5
155
 10
78.7844
 20
105.740
 30
0.00000
  70
    32
  0
VERTEX
  8
0
  5
156
 10
78.8820
 20
105.973
 30
0.00000
  70
    32
  0
VERTEX
  8
0
  5
157
 10
78.9748
 20
106.208
 30
0.00000
  70
    32
  0
VERTEX
  8
0
  5
158
 10
79.0628
 20
106.445
 30
0.00000
  70
    32
  0
VERTEX
  8
0
  5
159
 10
79.1459
 20
106.683
 30
0.00000
  70
    32
  0
VERTEX
  8
0
  5
15A
 10
79.2242
 20
106.923
 30
0.00000
  70
    32
  0
VERTEX
  8
0
  5
15B
 10
79.2976
 20
107.165
 30
0.00000
  70
    32
  0
VERTEX
  8
0
  5
15C
 10
79.3661
 20
107.408
 30
0.00000
  70
    32
  0
VERTEX
  8
0
  5
15D
 10
79.4296
 20
107.652
 30
0.00000
  70
    32
  0
VERTEX
  8
0
  5
15E
 10
79.4881
 20
107.898
 30
0.00000
  70
    32
  0
VERTEX
  8
0
  5
15F
 10
79.5416
 20
108.145
 30
0.00000
  70
    32
  0
VERTEX
  8
0
  5
160
 10
79.5901
 20
108.392
 30
0.00000
  70
    32
  0
VERTEX
  8
0
  5
161
 10
79.6336
 20
108.641
 30
0.00000
  70
    32
  0
VERTEX
  8
0
  5
162
 10
79.6719
 20
108.891
 30
0.00000
  70
    32
  0
VERTEX
  8
0
  5
163
 10
79.7052
 20
109.141
 30
0.00000
  70
    32
  0
VERTEX
  8
0
  5
164
 10
79.7334
 20
109.392
 30
0.00000
  70
    32
  0
VERTEX
  8
0
  5
165
 10
79.7565
 20
109.643
 30
0.00000
  70
    32
  0
VERTEX
  8
0
  5
166
 10
79.7745
 20
109.895
 30
0.00000
  70
    32
  0
VERTEX
  8
0
  5
167
 10
79.7873
 20
110.147
 30
0.00000
  70
    32
  0
VERTEX
  8
0
  5
168
 10
79.7950
 20
110.400
 30
0.00000
  70
    32
  0
VERTEX
  8
0
  5
169
 10
79.7976
 20
110.652
 30
0.00000
  70
    32
  0
VERTEX
  8
0
  5
16A
 10
79.7950
 20
110.905
 30
0.00000
  70
    32
  0
VERTEX
  8
0
  5
16B
 10
79.7873
 20
111.157
 30
0.00000
  70
    32
  0
VERTEX
  8
0
  5
16C
 10
79.7745
 20
111.409
 30
0.00000
  70
    32
  0
VERTEX
  8
0
  5
16D
 10
79.7565
 20
111.661
 30
0.00000
  70
    32
  0
VERTEX
  8
0
  5
16E
 10
79.7334
 20
111.913
 30
0.00000
  70
    32
  0
VERTEX
  8
0
  5
16F
 10
79.7052
 20
112.164
 30
0.00000
  70
    32
  0
VERTEX
  8
0
  5
170
 10
79.6719
 20
112.414
 30
0.00000
  70
    32
  0
VERTEX
  8
0
  5
171
 10
79.6336
 20
112.663
 30
0.00000
  70
    32
  0
VERTEX
  8
0
  5
172
 10
79.5901
 20
112.912
 30
0.00000
  70
    32
  0
VERTEX
  8
0
  5
173
 10
79.5416
 20
113.160
 30
0.00000
  70
    32
  0
VERTEX
  8
0
  5
174
 10
79.4881
 20
113.407
 30
0.00000
  70
    32
  0
VERTEX
  8
0
  5
175
 10
79.4296
 20
113.652
 30
0.00000
  70
    32
  0
VERTEX
  8
0
  5
176
 10
79.3661
 20
113.897
 30
0.00000
  70
    32
  0
VERTEX
  8
0
  5
177
 10
79.2976
 20
114.140
 30
0.00000
  70
    32
  0
VERTEX
  8
0
  5
178
 10
79.2242
 20
114.382
 30
0.00000
  70
    32
  0
VERTEX
  8
0
  5
179
 10
79.1459
 20
114.622
 30
0.00000
  70
    32
  0
VERTEX
  8
0
  5
17A
 10
79.0628
 20
114.860
 30
0.00000
  70
    32
  0
VERTEX
  8
0
  5
17B
 10
78.9748
 20
115.097
 30
0.00000
  70
    32
  0
VERTEX
  8
0
  5
17C
 10
78.8820
 20
115.332
 30
0.00000
  70
    32
  0
VERTEX
  8
0
  5
17D
 10
78.7844
 20
115.564
 30
0.00000
  70
    32
  0
VERTEX
  8
0
  5
17E
 10
78.6822
 20
115.795
 30
0.00000
  70
    32
  0
VERTEX
  8
0
  5
17F
 10
78.5752
 20
116.024
 30
0.00000
  70
    32
  0
VERTEX
  8
0
  5
180
 10
78.4637
 20
116.251
 30
0.00000
  70
    32
  0
VERTEX
  8
0
  5
181
 10
78.3475
 20
116.475
 30
0.00000
  70
    32
  0
VERTEX
  8
0
  5
182
 10
78.2268
 20
116.697
 30
0.00000
  70
    32
  0
VERTEX
  8
0
  5
183
 10
78.1017
 20
116.916
 30
0.00000
  70
    32
  0
VERTEX
  8
0
  5
184
 10
77.9721
 20
117.133
 30
0.00000
  70
    32
  0
VERTEX
  8
0
  5
185
 10
77.8381
 20
117.347
 30
0.00000
  70
    32
  0
VERTEX
  8
0
  5
186
 10
77.6998
 20
117.558
 30
0.00000
  70
    32
  0
VERTEX
  8
0
  5
187
 10
77.5572
 20
117.766
 30
0.00000
  70
    32
  0
VERTEX
  8
0
  5
188
 10
77.4104
 20
117.972
 30
0.00000
  70
    32
  0
VERTEX
  8
0
  5
189
 10
77.2595
 20
118.174
 30
0.00000
  70
    32
  0
VERTEX
  8
0
  5
18A
 10
77.1044
 20
118.373
 30
0.00000
  70
    32
  0
VERTEX
  8
0
  5
18B
 10
76.9454
 20
118.570
 30
0.00000
  70
    32
  0
VERTEX
  8
0
  5
18C
 10
76.7824
 20
118.762
 30
0.00000
  70
    32
  0
VERTEX
  8
0
  5
18D
 10
76.6155
 20
118.952
 30
0.00000
  70
    32
  0
VERTEX
  8
0
  5
18E
 10
76.4448
 20
119.138
 30
0.00000
  70
    32
  0
VERTEX
  8
0
  5
18F
 10
76.2703
 20
119.321
 30
0.00000
  70
    32
  0
VERTEX
  8
0
  5
190
 10
76.0922
 20
119.500
 30
0.00000
  70
    32
  0
VERTEX
  8
0
  5
191
 10
75.9105
 20
119.675
 30
0.00000
  70
    32
  0
VERTEX
  8
0
  5
192
 10
75.7252
 20
119.846
 30
0.00000
  70
    32
  0
VERTEX
  8
0
  5
193
 10
75.5365
 20
120.014
 30
0.00000
  70
    32
  0
VERTEX
  8
0
  5
194
 10
75.3444
 20
120.178
 30
0.00000
  70
    32
  0
VERTEX
  8
0
  5
195
 10
75.1490
 20
120.338
 30
0.00000
  70
    32
  0
VERTEX
  8
0
  5
196
 10
74.9504
 20
120.494
 30
0.00000
  70
    32
  0
VERTEX
  8
0
  5
197
 10
74.7487
 20
120.646
 30
0.00000
  70
    32
  0
VERTEX
  8
0
  5
198
 10
74.5439
 20
120.794
 30
0.00000
  70
    32
  0
VERTEX
  8
0
  5
199
 10
74.3362
 20
120.937
 30
0.00000
  70
    32
  0
VERTEX
  8
0
  5
19A
 10
74.1256
 20
121.076
 30
0.00000
  70
    32
  0
VERTEX
  8
0
  5
19B
 10
73.9122
 20
121.211
 30
0.00000
  70
    32
  0
VERTEX
  8
0
  5
19C
 10
73.6961
 20
121.342
 30
0.00000
  70
    32
  0
VERTEX
  8
0
  5
19D
 10
73.4773
 20
121.468
 30
0.00000
  70
    32
  0
VERTEX
  8
0
  5
19E
 10
73.2561
 20
121.590
 30
0.00000
  70
    32
  0
VERTEX
  8
0
  5
19F
 10
73.0324
 20
121.707
 30
0.00000
  70
    32
  0
VERTEX
  8
0
  5
1A0
 10
72.8064
 20
121.820
 30
0.00000
  70
    32
  0
VERTEX
  8
0
  5
1A1
 10
72.5782
 20
121.928
 30
0.00000
  70
    32
  0
VERTEX
  8
0
  5
1A2
 10
72.3478
 20
122.031
 30
0.00000
  70
    32
  0
VERTEX
  8
0
  5
1A3
 10
72.1153
 20
122.130
 30
0.00000
  70
    32
  0
VERTEX
  8
0
  5
1A4
 10
71.8809
 20
122.224
 30
0.00000
  70
    32
  0
VERTEX
  8
0
  5
1A5
 10
71.6447
 20
122.313
 30
0.00000
  70
    32
  0
VERTEX
  8
0
  5
1A6
 10
71.4066
 20
122.397
 30
0.00000
  70
    32
  0
VERTEX
  8
0
  5
1A7
 10
71.1669
 20
122.476
 30
0.00000
  70
    32
  0
VERTEX
  8
0
  5
1A8
 10
70.9257
 20
122.551
 30
0.00000
  70
    32
  0
VERTEX
  8
0
  5
1A9
 10
70.6830
 20
122.620
 30
0.00000
  70
    32
  0
SEQEND
  8
0
  5
1AA
  0
POLYLINE
  5
CA
  8
0
 10
-5.7266144020958301
 20
122.6203890206185747
 30
0.0
 66
     1
 70
     8
  0
VERTEX
  8
0
  5
1AB
 10
-5.72661
 20
122.620
 30
0.00000
  70
    32
  0
VERTEX
  8
0
  5
1AC
 10
-5.90411
 20
122.497
 30
0.00000
  70
    32
  0
VERTEX
  8
0
  5
1AD
 10
-6.07975
 20
122.371
 30
0.00000
  70
    32
  0
VERTEX
  8
0
  5
1AE
 10
-6.25349
 20
122.242
 30
0.00000
  70
    32
  0
VERTEX
  8
0
  5
1AF
 10
-6.42530
 20
122.111
 30
0.00000
  70
    32
  0
VERTEX
  8
0
  5
1B0
 10
-6.59513
 20
121.978
 30
0.00000
  70
    32
  0
VERTEX
  8
0
  5
1B1
 10
-6.76295
 20
121.841
 30
0.00000
  70
    32
  0
VERTEX
  8
0
  5
1B2
 10
-6.92871
 20
121.703
 30
0.00000
  70
    32
  0
VERTEX
  8
0
  5
1B3
 10
-7.09240
 20
121.561
 30
0.00000
  70
    32
  0
VERTEX
  8
0
  5
1B4
 10
-7.25396
 20
121.418
 30
0.00000
  70
    32
  0
VERTEX
  8
0
  5
1B5
 10
-7.41336
 20
121.272
 30
0.00000
  70
    32
  0
VERTEX
  8
0
  5
1B6
 10
-7.57057
 20
121.123
 30
0.00000
  70
    32
  0
VERTEX
  8
0
  5
1B7
 10
-7.72554
 20
120.973
 30
0.00000
  70
    32
  0
VERTEX
  8
0
  5
1B8
 10
-7.87826
 20
120.820
 30
0.00000
  70
    32
  0
VERTEX
  8
0
  5
1B9
 10
-8.02868
 20
120.665
 30
0.00000
  70
    32
  0
VERTEX
  8
0
  5
1BA
 10
-8.17676
 20
120.507
 30
0.00000
  70
    32
  0
VERTEX
  8
0
  5
1BB
 10
-8.32249
 20
120.347
 30
0.00000
  70
    32
  0
VERTEX
  8
0
  5
1BC
 10
-8.46581
 20
120.186
 30
0.00000
  70
    32
  0
VERTEX
  8
0
  5
1BD
 10
-8.60671
 20
120.022
 30
0.00000
  70
    32
  0
VERTEX
  8
0
  5
1BE
 10
-8.74515
 20
119.856
 30
0.00000
  70
    32
  0
VERTEX
  8
0
  5
1BF
 10
-8.88110
 20
119.688
 30
0.00000
  70
    32
  0
VERTEX
  8
0
  5
1C0
 10
-9.01453
 20
119.518
 30
0.00000
  70
    32
  0
VERTEX
  8
0
  5
1C1
 10
-9.14541
 20
119.346
 30
0.00000
  70
    32
  0
VERTEX
  8
0
  5
1C2
 10
-9.27371
 20
119.172
 30
0.00000
  70
    32
  0
VERTEX
  8
0
  5
1C3
 10
-9.39941
 20
118.996
 30
0.00000
  70
    32
  0
VERTEX
  8
0
  5
1C4
 10
-9.52246
 20
118.818
 30
0.00000
  70
    32
  0
VERTEX
  8
0
  5
1C5
 10
-9.64286
 20
118.639
 30
0.00000
  70
    32
  0
VERTEX
  8
0
  5
1C6
 10
-9.76056
 20
118.457
 30
0.00000
  70
    32
  0
VERTEX
  8
0
  5
1C7
 10
-9.87555
 20
118.274
 30
0.00000
  70
    32
  0
VERTEX
  8
0
  5
1C8
 10
-9.98780
 20
118.090
 30
0.00000
  70
    32
  0
VERTEX
  8
0
  5
1C9
 10
-10.0973
 20
117.903
 30
0.00000
  70
    32
  0
VERTEX
  8
0
  5
1CA
 10
-10.2040
 20
117.715
 30
0.00000
  70
    32
  0
VERTEX
  8
0
  5
1CB
 10
-10.3079
 20
117.526
 30
0.00000
  70
    32
  0
VERTEX
  8
0
  5
1CC
 10
-10.4089
 20
117.334
 30
0.00000
  70
    32
  0
VERTEX
  8
0
  5
1CD
 10
-10.5071
 20
117.142
 30
0.00000
  70
    32
  0
VERTEX
  8
0
  5
1CE
 10
-10.6024
 20
116.948
 30
0.00000
  70
    32
  0
VERTEX
  8
0
  5
1CF
 10
-10.6948
 20
116.752
 30
0.00000
  70
    32
  0
VERTEX
  8
0
  5
1D0
 10
-10.7842
 20
116.556
 30
0.00000
  70
    32
  0
VERTEX
  8
0
  5
1D1
 10
-10.8708
 20
116.358
 30
0.00000
  70
    32
  0
VERTEX
  8
0
  5
1D2
 10
-10.9543
 20
116.158
 30
0.00000
  70
    32
  0
VERTEX
  8
0
  5
1D3
 10
-11.0349
 20
115.958
 30
0.00000
  70
    32
  0
VERTEX
  8
0
  5
1D4
 10
-11.1125
 20
115.756
 30
0.00000
  70
    32
  0
VERTEX
  8
0
  5
1D5
 10
-11.1871
 20
115.553
 30
0.00000
  70
    32
  0
VERTEX
  8
0
  5
1D6
 10
-11.2586
 20
115.349
 30
0.00000
  70
    32
  0
VERTEX
  8
0
  5
1D7
 10
-11.3271
 20
115.144
 30
0.00000
  70
    32
  0
VERTEX
  8
0
  5
1D8
 10
-11.3925
 20
114.938
 30
0.00000
  70
    32
  0
VERTEX
  8
0
  5
1D9
 10
-11.4549
 20
114.731
 30
0.00000
  70
    32
  0
VERTEX
  8
0
  5
1DA
 10
-11.5142
 20
114.523
 30
0.00000
  70
    32
  0
VERTEX
  8
0
  5
1DB
 10
-11.5703
 20
114.314
 30
0.00000
  70
    32
  0
VERTEX
  8
0
  5
1DC
 10
-11.6233
 20
114.105
 30
0.00000
  70
    32
  0
VERTEX
  8
0
  5
1DD
 10
-11.6732
 20
113.895
 30
0.00000
  70
    32
  0
VERTEX
  8
0
  5
1DE
 10
-11.7200
 20
113.684
 30
0.00000
  70
    32
  0
VERTEX
  8
0
  5
1DF
 10
-11.7636
 20
113.472
 30
0.00000
  70
    32
  0
VERTEX
  8
0
  5
1E0
 10
-11.8041
 20
113.260
 30
0.00000
  70
    32
  0
VERTEX
  8
0
  5
1E1
 10
-11.8413
 20
113.047
 30
0.00000
  70
    32
  0
VERTEX
  8
0
  5
1E2
 10
-11.8754
 20
112.833
 30
0.00000
  70
    32
  0
VERTEX
  8
0
  5
1E3
 10
-11.9064
 20
112.619
 30
0.00000
  70
    32
  0
VERTEX
  8
0
  5
1E4
 10
-11.9341
 20
112.405
 30
0.00000
  70
    32
  0
VERTEX
  8
0
  5
1E5
 10
-11.9586
 20
112.190
 30
0.00000
  70
    32
  0
VERTEX
  8
0
  5
1E6
 10
-11.9799
 20
111.975
 30
0.00000
  70
    32
  0
VERTEX
  8
0
  5
1E7
 10
-11.9981
 20
111.760
 30
0.00000
  70
    32
  0
VERTEX
  8
0
  5
1E8
 10
-12.0130
 20
111.544
 30
0.00000
  70
    32
  0
VERTEX
  8
0
  5
1E9
 10
-12.0246
 20
111.328
 30
0.00000
  70
    32
  0
VERTEX
  8
0
  5
1EA
 10
-12.0331
 20
111.112
 30
0.00000
  70
    32
  0
VERTEX
  8
0
  5
1EB
 10
-12.0383
 20
110.896
 30
0.00000
  70
    32
  0
VERTEX
  8
0
  5
1EC
 10
-12.0404
 20
110.680
 30
0.00000
  70
    32
  0
VERTEX
  8
0
  5
1ED
 10
-12.0392
 20
110.464
 30
0.00000
  70
    32
  0
VERTEX
  8
0
  5
1EE
 10
-12.0347
 20
110.248
 30
0.00000
  70
    32
  0
VERTEX
  8
0
  5
1EF
 10
-12.0271
 20
110.032
 30
0.00000
  70
    32
  0
VERTEX
  8
0
  5
1F0
 10
-12.0162
 20
109.816
 30
0.00000
  70
    32
  0
VERTEX
  8
0
  5
1F1
 10
-12.0022
 20
109.600
 30
0.00000
  70
    32
  0
VERTEX
  8
0
  5
1F2
 10
-11.9849
 20
109.385
 30
0.00000
  70
    32
  0
VERTEX
  8
0
  5
1F3
 10
-11.9644
 20
109.169
 30
0.00000
  70
    32
  0
VERTEX
  8
0
  5
1F4
 10
-11.9407
 20
108.955
 30
0.00000
  70
    32
  0
VERTEX
  8
0
  5
1F5
 10
-11.9137
 20
108.740
 30
0.00000
  70
    32
  0
VERTEX
  8
0
  5
1F6
 10
-11.8836
 20
108.526
 30
0.00000
  70
    32
  0
VERTEX
  8
0
  5
1F7
 10
-11.8504
 20
108.312
 30
0.00000
  70
    32
  0
VERTEX
  8
0
  5
1F8
 10
-11.8139
 20
108.099
 30
0.00000
  70
    32
  0
VERTEX
  8
0
  5
1F9
 10
-11.7742
 20
107.887
 30
0.00000
  70
    32
  0
VERTEX
  8
0
  5
1FA
 10
-11.7314
 20
107.675
 30
0.00000
  70
    32
  0
VERTEX
  8
0
  5
1FB
 10
-11.6855
 20
107.464
 30
0.00000
  70
    32
  0
VERTEX
  8
0
  5
1FC
 10
-11.6364
 20
107.253
 30
0.00000
  70
    32
  0
VERTEX
  8
0
  5
1FD
 10
-11.5841
 20
107.044
 30
0.00000
  70
    32
  0
VERTEX
  8
0
  5
1FE
 10
-11.5288
 20
106.835
 30
0.00000
  70
    32
  0
VERTEX
  8
0
  5
1FF
 10
-11.4703
 20
106.626
 30
0.00000
  70
    32
  0
VERTEX
  8
0
  5
200
 10
-11.4088
 20
106.419
 30
0.00000
  70
    32
  0
VERTEX
  8
0
  5
201
 10
-11.3441
 20
106.213
 30
0.00000
  70
    32
  0
VERTEX
  8
0
  5
202
 10
-11.2764
 20
106.008
 30
0.00000
  70
    32
  0
VERTEX
  8
0
  5
203
 10
-11.2056
 20
105.803
 30
0.00000
  70
    32
  0
VERTEX
  8
0
  5
204
 10
-11.1318
 20
105.600
 30
0.00000
  70
    32
  0
VERTEX
  8
0
  5
205
 10
-11.0550
 20
105.398
 30
0.00000
  70
    32
  0
VERTEX
  8
0
  5
206
 10
-10.9752
 20
105.197
 30
0.00000
  70
    32
  0
VERTEX
  8
0
  5
207
 10
-10.8924
 20
104.998
 30
0.00000
  70
    32
  0
VERTEX
  8
0
  5
208
 10
-10.8066
 20
104.799
 30
0.00000
  70
    32
  0
VERTEX
  8
0
  5
209
 10
-10.7179
 20
104.602
 30
0.00000
  70
    32
  0
VERTEX
  8
0
  5
20A
 10
-10.6262
 20
104.406
 30
0.00000
  70
    32
  0
VERTEX
  8
0
  5
20B
 10
-10.5317
 20
104.212
 30
0.00000
  70
    32
  0
VERTEX
  8
0
  5
20C
 10
-10.4342
 20
104.019
 30
0.00000
  70
    32
  0
VERTEX
  8
0
  5
20D
 10
-10.3339
 20
103.828
 30
0.00000
  70
    32
  0
VERTEX
  8
0
  5
20E
 10
-10.2308
 20
103.638
 30
0.00000
  70
    32
  0
VERTEX
  8
0
  5
20F
 10
-10.1248
 20
103.449
 30
0.00000
  70
    32
  0
VERTEX
  8
0
  5
210
 10
-10.0160
 20
103.263
 30
0.00000
  70
    32
  0
VERTEX
  8
0
  5
211
 10
-9.90448
 20
103.077
 30
0.00000
  70
    32
  0
VERTEX
  8
0
  5
212
 10
-9.79018
 20
102.894
 30
0.00000
  70
    32
  0
VERTEX
  8
0
  5
213
 10
-9.67317
 20
102.712
 30
0.00000
  70
    32
  0
VERTEX
  8
0
  5
214
 10
-9.55346
 20
102.532
 30
0.00000
  70
    32
  0
VERTEX
  8
0
  5
215
 10
-9.43108
 20
102.354
 30
0.00000
  70
    32
  0
VERTEX
  8
0
  5
216
 10
-9.30605
 20
102.178
 30
0.00000
  70
    32
  0
VERTEX
  8
0
  5
217
 10
-9.17842
 20
102.003
 30
0.00000
  70
    32
  0
VERTEX
  8
0
  5
218
 10
-9.04819
 20
101.831
 30
0.00000
  70
    32
  0
VERTEX
  8
0
  5
219
 10
-8.91541
 20
101.660
 30
0.00000
  70
    32
  0
VERTEX
  8
0
  5
21A
 10
-8.78010
 20
101.492
 30
0.00000
  70
    32
  0
VERTEX
  8
0
  5
21B
 10
-8.64229
 20
101.325
 30
0.00000
  70
    32
  0
VERTEX
  8
0
  5
21C
 10
-8.50202
 20
101.161
 30
0.00000
  70
    32
  0
VERTEX
  8
0
  5
21D
 10
-8.35931
 20
100.998
 30
0.00000
  70
    32
  0
VERTEX
  8
0
  5
21E
 10
-8.21420
 20
100.838
 30
0.00000
  70
    32
  0
VERTEX
  8
0
  5
21F
 10
-8.06671
 20
100.680
 30
0.00000
  70
    32
  0
VERTEX
  8
0
  5
220
 10
-7.91688
 20
100.524
 30
0.00000
  70
    32
  0
VERTEX
  8
0
  5
221
 10
-7.76475
 20
100.371
 30
0.00000
  70
    32
  0
VERTEX
  8
0
  5
222
 10
-7.61035
 20
100.219
 30
0.00000
  70
    32
  0
VERTEX
  8
0
  5
223
 10
-7.45371
 20
100.070
 30
0.00000
  70
    32
  0
VERTEX
  8
0
  5
224
 10
-7.29486
 20
99.9238
 30
0.00000
  70
    32
  0
VERTEX
  8
0
  5
225
 10
-7.13385
 20
99.7796
 30
0.00000
  70
    32
  0
VERTEX
  8
0
  5
226
 10
-6.97071
 20
99.6378
 30
0.00000
  70
    32
  0
VERTEX
  8
0
  5
227
 10
-6.80547
 20
99.4984
 30
0.00000
  70
    32
  0
VERTEX
  8
0
  5
228
 10
-6.63817
 20
99.3616
 30
0.00000
  70
    32
  0
VERTEX
  8
0
  5
229
 10
-6.46885
 20
99.2272
 30
0.00000
  70
    32
  0
VERTEX
  8
0
  5
22A
 10
-6.29754
 20
99.0954
 30
0.00000
  70
    32
  0
VERTEX
  8
0
  5
22B
 10
-6.12429
 20
98.9661
 30
0.00000
  70
    32
  0
SEQEND
  8
0
  5
22C
  0
CIRCLE
  5
CB
  8
0
 10
169.1954287046631009
 20
55.9522911051213612
 30
0.0
 40
2.25
  0
CIRCLE
  5
CC
  8
0
 10
169.1954287046631009
 20
115.6522911051211935
 30
0.0
 40
2.25
  0
CIRCLE
  5
CD
  8
0
 10
-100.5045712953368025
 20
115.6522911051211935
 30
0.0
 40
2.25
  0
CIRCLE
  5
CE
  8
0
 10
-100.5045712953368025
 20
55.9522911051213612
 30
0.0
 40
2.25
  0
ENDSEC
  0
EOF
